<svg width="127" height="167" viewBox="0 0 127 167" fill="white" xmlns="http://www.w3.org/2000/svg">
  <path d="M18 30.73c0-.76.22-1.35.66-1.8.5-.5 1.13-.75 1.89-.75h2.54v-2.54c0-.76.22-1.35.66-1.8.5-.5 1.13-.75 1.89-.75h2.45v-2.54c0-.76.22-1.36.66-1.8.5-.5 1.13-.75 1.88-.75H51c.76 0 1.35.25 1.8.75.5.44.75 1.04.75 1.8v2.54h2.54c.76 0 1.35.25 1.8.76.5.44.75 1.03.75 1.79v2.54h2.45c.75 0 1.35.25 1.8.76.5.44.75 1.03.75 1.79v10.09a2.42 2.42 0 0 1-2.55 2.55h-2.45v2.54a2.42 2.42 0 0 1-2.55 2.55h-2.54v5.09h2.54c.76 0 1.35.25 1.8.75.5.44.75 1.04.75 1.8v2.54h2.45c.75 0 1.35.25 1.8.75.5.44.75 1.04.75 1.8v10.08a2.42 2.42 0 0 1-2.55 2.55h-2.45v2.55a2.42 2.42 0 0 1-2.55 2.55h-2.54v2.54A2.42 2.42 0 0 1 51 84H30.63c-.75 0-1.38-.23-1.88-.67a2.76 2.76 0 0 1-.66-1.88V78.9h-2.45c-.76 0-1.39-.22-1.89-.66a2.76 2.76 0 0 1-.66-1.89v-2.54h-2.54c-.76 0-1.39-.22-1.89-.66a2.76 2.76 0 0 1-.66-1.89v-7.63h10.18v5.09h2.45c.76 0 1.36.25 1.8.75.5.44.75 1.04.75 1.8v2.54h15.28v-2.55c0-.75.22-1.35.66-1.79.5-.5 1.13-.75 1.88-.75h2.55v-5H51c-.75 0-1.38-.22-1.88-.66a2.76 2.76 0 0 1-.66-1.89v-2.54H45.9a2.8 2.8 0 0 1-1.89-.66 2.76 2.76 0 0 1-.66-1.89v-2.54H28.1V43.36h20.37v-2.54c0-.76.22-1.35.66-1.8.5-.5 1.13-.75 1.88-.75h2.55v-5H51c-.75 0-1.38-.22-1.88-.66a2.76 2.76 0 0 1-.66-1.88v-2.55H33.18v2.55c0 .75-.25 1.38-.75 1.88-.44.44-1.04.66-1.8.66H28.1v5.1H18v-7.64Z"/>
  <path d="M63.55 30.73c0-.76.22-1.35.66-1.8.5-.5 1.13-.75 1.89-.75h2.54v-2.54c0-.76.22-1.35.66-1.8.5-.5 1.13-.75 1.89-.75h2.45v-2.54c0-.76.22-1.36.66-1.8.5-.5 1.13-.75 1.88-.75h20.37c.76 0 1.35.25 1.8.75.5.44.75 1.04.75 1.8v2.54h2.54c.76 0 1.35.25 1.8.76.5.44.75 1.03.75 1.79v2.54h2.45c.75 0 1.35.25 1.8.76.5.44.75 1.03.75 1.79v10.09a2.42 2.42 0 0 1-2.55 2.55h-2.45v2.54a2.42 2.42 0 0 1-2.55 2.55H99.1v5.09h2.54c.76 0 1.35.25 1.8.75.5.44.75 1.04.75 1.8v2.54h2.45c.75 0 1.35.25 1.8.75.5.44.75 1.04.75 1.8v10.08a2.42 2.42 0 0 1-2.55 2.55h-2.45v2.55a2.42 2.42 0 0 1-2.55 2.55H99.1v2.54A2.42 2.42 0 0 1 96.55 84H76.18c-.75 0-1.38-.23-1.88-.67a2.76 2.76 0 0 1-.66-1.88V78.9h-2.45c-.76 0-1.39-.22-1.89-.66a2.76 2.76 0 0 1-.66-1.89v-2.54H66.1c-.76 0-1.39-.22-1.89-.66a2.76 2.76 0 0 1-.66-1.89v-7.63h10.18v5.09h2.45c.76 0 1.36.25 1.8.75.5.44.75 1.04.75 1.8v2.54h15.28v-2.55c0-.75.22-1.35.66-1.79.5-.5 1.13-.75 1.88-.75h2.55v-5h-2.55c-.75 0-1.38-.22-1.88-.66a2.76 2.76 0 0 1-.66-1.89v-2.54h-2.55a2.8 2.8 0 0 1-1.89-.66 2.76 2.76 0 0 1-.66-1.89v-2.54H73.64V43.36H94v-2.54c0-.76.22-1.35.66-1.8.5-.5 1.13-.75 1.88-.75h2.55v-5h-2.55c-.75 0-1.38-.22-1.88-.66a2.76 2.76 0 0 1-.66-1.88v-2.55H78.73v2.55c0 .75-.25 1.38-.75 1.88-.44.44-1.04.66-1.8.66h-2.54v5.1H63.55v-7.64ZM18 95.73c0-.76.22-1.35.66-1.8.5-.5 1.13-.75 1.89-.75h2.54v-2.54c0-.76.22-1.36.66-1.8.5-.5 1.13-.75 1.89-.75h2.45v-2.55c0-.75.22-1.35.66-1.79.5-.5 1.13-.75 1.88-.75H51c.76 0 1.35.25 1.8.75.5.44.75 1.04.75 1.8v2.54h2.54c.76 0 1.35.25 1.8.75.5.44.75 1.04.75 1.8v2.54h2.45c.75 0 1.35.25 1.8.76.5.44.75 1.03.75 1.79v10.09a2.42 2.42 0 0 1-2.55 2.55h-2.45v2.54a2.42 2.42 0 0 1-2.55 2.55h-2.54v5.09h2.54c.76 0 1.35.25 1.8.75.5.44.75 1.04.75 1.79v2.55h2.45c.75 0 1.35.25 1.8.75.5.44.75 1.04.75 1.8v10.08a2.6 2.6 0 0 1-.76 1.89c-.44.44-1.04.66-1.79.66h-2.45v2.54a2.42 2.42 0 0 1-2.55 2.54h-2.54v2.55A2.42 2.42 0 0 1 51 149H30.63c-.75 0-1.38-.22-1.88-.66a2.76 2.76 0 0 1-.66-1.89v-2.54h-2.45c-.76 0-1.39-.22-1.89-.66a2.76 2.76 0 0 1-.66-1.89v-2.54h-2.54c-.76 0-1.39-.22-1.89-.66a2.76 2.76 0 0 1-.66-1.89v-7.64h10.18v5.1h2.45c.76 0 1.36.25 1.8.75.5.44.75 1.04.75 1.8v2.54h15.28v-2.55c0-.75.22-1.35.66-1.8.5-.5 1.13-.75 1.88-.75h2.55v-5H51c-.75 0-1.38-.21-1.88-.65a2.76 2.76 0 0 1-.66-1.89v-2.54H45.9a2.8 2.8 0 0 1-1.89-.66 2.76 2.76 0 0 1-.66-1.89v-2.55H28.1v-10.18h20.37v-2.54c0-.76.22-1.36.66-1.8.5-.5 1.13-.75 1.88-.75h2.55v-5H51c-.75 0-1.38-.22-1.88-.66a2.76 2.76 0 0 1-.66-1.88v-2.55H33.18v2.55c0 .75-.25 1.38-.75 1.88-.44.44-1.04.66-1.8.66H28.1v5.1H18v-7.64Z"/>
</svg>